<svg xmlns="http://www.w3.org/2000/svg" viewBox="0 0 800 420" font-family="Segoe UI, sans-serif">
<rect width="800" height="420" fill="#0d1117" rx="8"/>
<text x="64" y="30" fill="#e6edf3" font-size="17" font-weight="700">★ Star History — timoncool/Higgs-Ultimate</text>
<text x="776" y="30" fill="#e6edf3" font-size="14" text-anchor="end">34 stars · updated 2026-09-05</text>
<line x1="64" y1="364.0" x2="776" y2="364.0" stroke="#30363d" stroke-width="1"/><text x="54" y="368.0" fill="#e6edf3" font-size="13" text-anchor="end">0</text><line x1="64" y1="289.6" x2="776" y2="289.6" stroke="#30363d" stroke-width="1"/><text x="54" y="293.6" fill="#e6edf3" font-size="13" text-anchor="end">8</text><line x1="64" y1="206.0" x2="776" y2="206.0" stroke="#30363d" stroke-width="1"/><text x="54" y="210.0" fill="#e6edf3" font-size="13" text-anchor="end">17</text><line x1="64" y1="122.4" x2="776" y2="122.4" stroke="#30363d" stroke-width="1"/><text x="54" y="126.4" fill="#e6edf3" font-size="13" text-anchor="end">26</text><line x1="64" y1="48.0" x2="776" y2="48.0" stroke="#30363d" stroke-width="1"/><text x="54" y="52.0" fill="#e6edf3" font-size="13" text-anchor="end">34</text>
<path d="M64.0,364.0 L64.0,354.7 L64.2,345.4 L64.5,336.1 L70.5,326.8 L72.2,317.5 L75.8,308.2 L76.5,298.9 L79.8,289.6 L92.8,280.4 L93.5,271.1 L94.8,261.8 L94.8,252.5 L99.2,243.2 L99.4,233.9 L99.5,224.6 L99.9,215.3 L100.1,206.0 L105.5,196.7 L112.8,187.4 L126.2,178.1 L129.7,168.8 L140.0,159.5 L234.7,150.2 L271.7,140.9 L300.6,131.6 L337.0,122.4 L381.1,113.1 L428.1,103.8 L436.7,94.5 L481.7,85.2 L489.1,75.9 L555.2,66.6 L671.7,57.3 L684.4,48.0 L776.0,48.0" fill="none" stroke="#4f8ff7" stroke-width="2.5" stroke-linejoin="round"/>
<circle cx="776.0" cy="48.0" r="4" fill="#4f8ff7"/>
<text x="64.0" y="388" fill="#e6edf3" font-size="13" text-anchor="middle">Jul 09, 2026</text><text x="301.3" y="388" fill="#e6edf3" font-size="13" text-anchor="middle">Jul 28, 2026</text><text x="538.7" y="388" fill="#e6edf3" font-size="13" text-anchor="middle">Aug 16, 2026</text><text x="776.0" y="388" fill="#e6edf3" font-size="13" text-anchor="middle">Sep 05, 2026</text>
</svg>