<svg xmlns="http://www.w3.org/2000/svg" viewBox="0 0 800 420" font-family="Segoe UI, sans-serif">
<rect width="800" height="420" fill="#ffffff" rx="8"/>
<text x="64" y="30" fill="#1f2328" font-size="17" font-weight="700">★ Star History — timoncool/Higgs-Ultimate</text>
<text x="776" y="30" fill="#1f2328" font-size="14" text-anchor="end">34 stars · updated 2026-09-16</text>
<line x1="64" y1="364.0" x2="776" y2="364.0" stroke="#d1d9e0" stroke-width="1"/><text x="54" y="368.0" fill="#1f2328" font-size="13" text-anchor="end">0</text><line x1="64" y1="289.6" x2="776" y2="289.6" stroke="#d1d9e0" stroke-width="1"/><text x="54" y="293.6" fill="#1f2328" font-size="13" text-anchor="end">8</text><line x1="64" y1="206.0" x2="776" y2="206.0" stroke="#d1d9e0" stroke-width="1"/><text x="54" y="210.0" fill="#1f2328" font-size="13" text-anchor="end">17</text><line x1="64" y1="122.4" x2="776" y2="122.4" stroke="#d1d9e0" stroke-width="1"/><text x="54" y="126.4" fill="#1f2328" font-size="13" text-anchor="end">26</text><line x1="64" y1="48.0" x2="776" y2="48.0" stroke="#d1d9e0" stroke-width="1"/><text x="54" y="52.0" fill="#1f2328" font-size="13" text-anchor="end">34</text>
<path d="M64.0,364.0 L64.0,354.7 L64.1,345.4 L64.5,336.1 L69.5,326.8 L70.9,317.5 L73.9,308.2 L74.5,298.9 L77.3,289.6 L88.2,280.4 L88.8,271.1 L89.9,261.8 L89.9,252.5 L93.6,243.2 L93.7,233.9 L93.8,224.6 L94.2,215.3 L94.3,206.0 L98.8,196.7 L105.0,187.4 L116.3,178.1 L119.2,168.8 L127.8,159.5 L207.4,150.2 L238.5,140.9 L262.7,131.6 L293.3,122.4 L330.4,113.1 L369.8,103.8 L377.1,94.5 L414.9,85.2 L421.1,75.9 L476.7,66.6 L574.5,57.3 L585.2,48.0 L776.0,48.0" fill="none" stroke="#0969da" stroke-width="2.5" stroke-linejoin="round"/>
<circle cx="776.0" cy="48.0" r="4" fill="#0969da"/>
<text x="64.0" y="388" fill="#1f2328" font-size="13" text-anchor="middle">Jul 09, 2026</text><text x="301.3" y="388" fill="#1f2328" font-size="13" text-anchor="middle">Aug 01, 2026</text><text x="538.7" y="388" fill="#1f2328" font-size="13" text-anchor="middle">Aug 24, 2026</text><text x="776.0" y="388" fill="#1f2328" font-size="13" text-anchor="middle">Sep 16, 2026</text>
</svg>