<svg xmlns="http://www.w3.org/2000/svg" viewBox="0 0 800 420" font-family="Segoe UI, sans-serif">
<rect width="800" height="420" fill="#0d1117" rx="8"/>
<text x="64" y="30" fill="#e6edf3" font-size="17" font-weight="700">★ Star History — timoncool/Higgs-Ultimate</text>
<text x="776" y="30" fill="#e6edf3" font-size="14" text-anchor="end">23 stars · updated 2026-07-24</text>
<line x1="64" y1="364.0" x2="776" y2="364.0" stroke="#30363d" stroke-width="1"/><text x="54" y="368.0" fill="#e6edf3" font-size="13" text-anchor="end">0</text><line x1="64" y1="281.6" x2="776" y2="281.6" stroke="#30363d" stroke-width="1"/><text x="54" y="285.6" fill="#e6edf3" font-size="13" text-anchor="end">6</text><line x1="64" y1="199.1" x2="776" y2="199.1" stroke="#30363d" stroke-width="1"/><text x="54" y="203.1" fill="#e6edf3" font-size="13" text-anchor="end">12</text><line x1="64" y1="130.4" x2="776" y2="130.4" stroke="#30363d" stroke-width="1"/><text x="54" y="134.4" fill="#e6edf3" font-size="13" text-anchor="end">17</text><line x1="64" y1="48.0" x2="776" y2="48.0" stroke="#30363d" stroke-width="1"/><text x="54" y="52.0" fill="#e6edf3" font-size="13" text-anchor="end">23</text>
<path d="M64.0,364.0 L64.0,350.3 L64.7,336.5 L66.1,322.8 L89.3,309.0 L95.9,295.3 L110.0,281.6 L112.6,267.8 L125.6,254.1 L175.9,240.3 L178.9,226.6 L183.8,212.9 L183.9,199.1 L201.0,185.4 L201.7,171.7 L202.2,157.9 L203.7,144.2 L204.6,130.4 L225.4,116.7 L253.7,103.0 L306.1,89.2 L319.6,75.5 L359.7,61.7 L728.2,48.0 L776.0,48.0" fill="none" stroke="#4f8ff7" stroke-width="2.5" stroke-linejoin="round"/>
<circle cx="776.0" cy="48.0" r="4" fill="#4f8ff7"/>
<text x="64.0" y="388" fill="#e6edf3" font-size="13" text-anchor="middle">Jul 09, 2026</text><text x="301.3" y="388" fill="#e6edf3" font-size="13" text-anchor="middle">Jul 14, 2026</text><text x="538.7" y="388" fill="#e6edf3" font-size="13" text-anchor="middle">Jul 19, 2026</text><text x="776.0" y="388" fill="#e6edf3" font-size="13" text-anchor="middle">Jul 24, 2026</text>
</svg>