<svg xmlns="http://www.w3.org/2000/svg" viewBox="0 0 800 420" font-family="Segoe UI, sans-serif">
<rect width="800" height="420" fill="#ffffff" rx="8"/>
<text x="64" y="30" fill="#1f2328" font-size="17" font-weight="700">★ Star History — timoncool/Higgs-Ultimate</text>
<text x="776" y="30" fill="#1f2328" font-size="14" text-anchor="end">37 stars · updated 2026-09-28</text>
<line x1="64" y1="364.0" x2="776" y2="364.0" stroke="#d1d9e0" stroke-width="1"/><text x="54" y="368.0" fill="#1f2328" font-size="13" text-anchor="end">0</text><line x1="64" y1="287.1" x2="776" y2="287.1" stroke="#d1d9e0" stroke-width="1"/><text x="54" y="291.1" fill="#1f2328" font-size="13" text-anchor="end">9</text><line x1="64" y1="210.3" x2="776" y2="210.3" stroke="#d1d9e0" stroke-width="1"/><text x="54" y="214.3" fill="#1f2328" font-size="13" text-anchor="end">18</text><line x1="64" y1="124.9" x2="776" y2="124.9" stroke="#d1d9e0" stroke-width="1"/><text x="54" y="128.9" fill="#1f2328" font-size="13" text-anchor="end">28</text><line x1="64" y1="48.0" x2="776" y2="48.0" stroke="#d1d9e0" stroke-width="1"/><text x="54" y="52.0" fill="#1f2328" font-size="13" text-anchor="end">37</text>
<path d="M64.0,364.0 L64.0,355.5 L64.1,346.9 L64.4,338.4 L68.7,329.8 L69.9,321.3 L72.5,312.8 L72.9,304.2 L75.3,295.7 L84.6,287.1 L85.2,278.6 L86.0,270.1 L86.1,261.5 L89.2,253.0 L89.4,244.4 L89.4,235.9 L89.7,227.4 L89.9,218.8 L93.7,210.3 L98.9,201.7 L108.6,193.2 L111.1,184.6 L118.4,176.1 L186.2,167.6 L212.8,159.0 L233.4,150.5 L259.5,141.9 L291.1,133.4 L324.7,124.9 L330.9,116.3 L363.2,107.8 L368.4,99.2 L415.8,90.7 L508.3,82.2 L677.1,73.6 L691.9,65.1 L728.5,56.5 L776.0,48.0 L776.0,48.0" fill="none" stroke="#0969da" stroke-width="2.5" stroke-linejoin="round"/>
<circle cx="776.0" cy="48.0" r="4" fill="#0969da"/>
<text x="64.0" y="388" fill="#1f2328" font-size="13" text-anchor="middle">Jul 09, 2026</text><text x="301.3" y="388" fill="#1f2328" font-size="13" text-anchor="middle">Aug 05, 2026</text><text x="538.7" y="388" fill="#1f2328" font-size="13" text-anchor="middle">Sep 01, 2026</text><text x="776.0" y="388" fill="#1f2328" font-size="13" text-anchor="middle">Sep 28, 2026</text>
</svg>