<svg xmlns="http://www.w3.org/2000/svg" viewBox="0 0 800 420" font-family="Segoe UI, sans-serif">
<rect width="800" height="420" fill="#ffffff" rx="8"/>
<text x="64" y="30" fill="#1f2328" font-size="17" font-weight="700">★ Star History — timoncool/Higgs-Ultimate</text>
<text x="776" y="30" fill="#1f2328" font-size="14" text-anchor="end">37 stars · updated 2026-09-24</text>
<line x1="64" y1="364.0" x2="776" y2="364.0" stroke="#d1d9e0" stroke-width="1"/><text x="54" y="368.0" fill="#1f2328" font-size="13" text-anchor="end">0</text><line x1="64" y1="287.1" x2="776" y2="287.1" stroke="#d1d9e0" stroke-width="1"/><text x="54" y="291.1" fill="#1f2328" font-size="13" text-anchor="end">9</text><line x1="64" y1="210.3" x2="776" y2="210.3" stroke="#d1d9e0" stroke-width="1"/><text x="54" y="214.3" fill="#1f2328" font-size="13" text-anchor="end">18</text><line x1="64" y1="124.9" x2="776" y2="124.9" stroke="#d1d9e0" stroke-width="1"/><text x="54" y="128.9" fill="#1f2328" font-size="13" text-anchor="end">28</text><line x1="64" y1="48.0" x2="776" y2="48.0" stroke="#d1d9e0" stroke-width="1"/><text x="54" y="52.0" fill="#1f2328" font-size="13" text-anchor="end">37</text>
<path d="M64.0,364.0 L64.0,355.5 L64.1,346.9 L64.4,338.4 L68.9,329.8 L70.1,321.3 L72.9,312.8 L73.4,304.2 L75.9,295.7 L85.6,287.1 L86.1,278.6 L87.1,270.1 L87.1,261.5 L90.4,253.0 L90.5,244.4 L90.6,235.9 L90.9,227.4 L91.1,218.8 L95.1,210.3 L100.6,201.7 L110.6,193.2 L113.3,184.6 L121.0,176.1 L192.0,167.6 L219.7,159.0 L241.3,150.5 L268.7,141.9 L301.7,133.4 L337.0,124.9 L343.4,116.3 L377.2,107.8 L382.7,99.2 L432.3,90.7 L519.6,82.2 L529.1,73.6 L705.8,65.1 L721.3,56.5 L759.6,48.0 L776.0,48.0" fill="none" stroke="#0969da" stroke-width="2.5" stroke-linejoin="round"/>
<circle cx="776.0" cy="48.0" r="4" fill="#0969da"/>
<text x="64.0" y="388" fill="#1f2328" font-size="13" text-anchor="middle">Jul 09, 2026</text><text x="301.3" y="388" fill="#1f2328" font-size="13" text-anchor="middle">Aug 04, 2026</text><text x="538.7" y="388" fill="#1f2328" font-size="13" text-anchor="middle">Aug 29, 2026</text><text x="776.0" y="388" fill="#1f2328" font-size="13" text-anchor="middle">Sep 24, 2026</text>
</svg>