<svg xmlns="http://www.w3.org/2000/svg" viewBox="0 0 800 420" font-family="Segoe UI, sans-serif">
<rect width="800" height="420" fill="#0d1117" rx="8"/>
<text x="64" y="30" fill="#e6edf3" font-size="17" font-weight="700">★ Star History — timoncool/Higgs-Ultimate</text>
<text x="776" y="30" fill="#e6edf3" font-size="14" text-anchor="end">32 stars · updated 2026-08-19</text>
<line x1="64" y1="364.0" x2="776" y2="364.0" stroke="#30363d" stroke-width="1"/><text x="54" y="368.0" fill="#e6edf3" font-size="13" text-anchor="end">0</text><line x1="64" y1="285.0" x2="776" y2="285.0" stroke="#30363d" stroke-width="1"/><text x="54" y="289.0" fill="#e6edf3" font-size="13" text-anchor="end">8</text><line x1="64" y1="206.0" x2="776" y2="206.0" stroke="#30363d" stroke-width="1"/><text x="54" y="210.0" fill="#e6edf3" font-size="13" text-anchor="end">16</text><line x1="64" y1="127.0" x2="776" y2="127.0" stroke="#30363d" stroke-width="1"/><text x="54" y="131.0" fill="#e6edf3" font-size="13" text-anchor="end">24</text><line x1="64" y1="48.0" x2="776" y2="48.0" stroke="#30363d" stroke-width="1"/><text x="54" y="52.0" fill="#e6edf3" font-size="13" text-anchor="end">32</text>
<path d="M64.0,364.0 L64.0,354.1 L64.2,344.2 L64.8,334.4 L73.2,324.5 L75.6,314.6 L80.8,304.8 L81.7,294.9 L86.5,285.0 L104.8,275.1 L105.9,265.2 L107.7,255.4 L107.8,245.5 L114.0,235.6 L114.3,225.8 L114.4,215.9 L115.0,206.0 L115.3,196.1 L122.9,186.2 L133.2,176.4 L152.4,166.5 L157.3,156.6 L172.0,146.8 L306.4,136.9 L359.0,127.0 L400.0,117.1 L451.8,107.2 L514.4,97.4 L581.1,87.5 L593.4,77.6 L657.3,67.8 L667.7,57.9 L761.7,48.0 L776.0,48.0" fill="none" stroke="#4f8ff7" stroke-width="2.5" stroke-linejoin="round"/>
<circle cx="776.0" cy="48.0" r="4" fill="#4f8ff7"/>
<text x="64.0" y="388" fill="#e6edf3" font-size="13" text-anchor="middle">Jul 09, 2026</text><text x="301.3" y="388" fill="#e6edf3" font-size="13" text-anchor="middle">Jul 22, 2026</text><text x="538.7" y="388" fill="#e6edf3" font-size="13" text-anchor="middle">Aug 05, 2026</text><text x="776.0" y="388" fill="#e6edf3" font-size="13" text-anchor="middle">Aug 19, 2026</text>
</svg>