<svg xmlns="http://www.w3.org/2000/svg" viewBox="0 0 800 420" font-family="Segoe UI, sans-serif">
<rect width="800" height="420" fill="#0d1117" rx="8"/>
<text x="64" y="30" fill="#e6edf3" font-size="17" font-weight="700">★ Star History — timoncool/Higgs-Ultimate</text>
<text x="776" y="30" fill="#e6edf3" font-size="14" text-anchor="end">31 stars · updated 2026-08-17</text>
<line x1="64" y1="364.0" x2="776" y2="364.0" stroke="#30363d" stroke-width="1"/><text x="54" y="368.0" fill="#e6edf3" font-size="13" text-anchor="end">0</text><line x1="64" y1="282.5" x2="776" y2="282.5" stroke="#30363d" stroke-width="1"/><text x="54" y="286.5" fill="#e6edf3" font-size="13" text-anchor="end">8</text><line x1="64" y1="200.9" x2="776" y2="200.9" stroke="#30363d" stroke-width="1"/><text x="54" y="204.9" fill="#e6edf3" font-size="13" text-anchor="end">16</text><line x1="64" y1="129.5" x2="776" y2="129.5" stroke="#30363d" stroke-width="1"/><text x="54" y="133.5" fill="#e6edf3" font-size="13" text-anchor="end">23</text><line x1="64" y1="48.0" x2="776" y2="48.0" stroke="#30363d" stroke-width="1"/><text x="54" y="52.0" fill="#e6edf3" font-size="13" text-anchor="end">31</text>
<path d="M64.0,364.0 L64.0,353.8 L64.3,343.6 L64.8,333.4 L73.7,323.2 L76.2,313.0 L81.7,302.8 L82.6,292.6 L87.6,282.5 L106.9,272.3 L108.1,262.1 L110.0,251.9 L110.0,241.7 L116.6,231.5 L116.9,221.3 L117.0,211.1 L117.6,200.9 L118.0,190.7 L125.9,180.5 L136.8,170.3 L156.9,160.1 L162.1,149.9 L177.5,139.7 L318.9,129.5 L374.2,119.4 L417.3,109.2 L471.7,99.0 L537.5,88.8 L607.8,78.6 L620.6,68.4 L687.9,58.2 L698.8,48.0 L776.0,48.0" fill="none" stroke="#4f8ff7" stroke-width="2.5" stroke-linejoin="round"/>
<circle cx="776.0" cy="48.0" r="4" fill="#4f8ff7"/>
<text x="64.0" y="388" fill="#e6edf3" font-size="13" text-anchor="middle">Jul 09, 2026</text><text x="301.3" y="388" fill="#e6edf3" font-size="13" text-anchor="middle">Jul 22, 2026</text><text x="538.7" y="388" fill="#e6edf3" font-size="13" text-anchor="middle">Aug 04, 2026</text><text x="776.0" y="388" fill="#e6edf3" font-size="13" text-anchor="middle">Aug 17, 2026</text>
</svg>