<svg xmlns="http://www.w3.org/2000/svg" viewBox="0 0 800 420" font-family="Segoe UI, sans-serif">
<rect width="800" height="420" fill="#ffffff" rx="8"/>
<text x="64" y="30" fill="#1f2328" font-size="17" font-weight="700">★ Star History — timoncool/Higgs-Ultimate</text>
<text x="776" y="30" fill="#1f2328" font-size="14" text-anchor="end">32 stars · updated 2026-08-20</text>
<line x1="64" y1="364.0" x2="776" y2="364.0" stroke="#d1d9e0" stroke-width="1"/><text x="54" y="368.0" fill="#1f2328" font-size="13" text-anchor="end">0</text><line x1="64" y1="285.0" x2="776" y2="285.0" stroke="#d1d9e0" stroke-width="1"/><text x="54" y="289.0" fill="#1f2328" font-size="13" text-anchor="end">8</text><line x1="64" y1="206.0" x2="776" y2="206.0" stroke="#d1d9e0" stroke-width="1"/><text x="54" y="210.0" fill="#1f2328" font-size="13" text-anchor="end">16</text><line x1="64" y1="127.0" x2="776" y2="127.0" stroke="#d1d9e0" stroke-width="1"/><text x="54" y="131.0" fill="#1f2328" font-size="13" text-anchor="end">24</text><line x1="64" y1="48.0" x2="776" y2="48.0" stroke="#d1d9e0" stroke-width="1"/><text x="54" y="52.0" fill="#1f2328" font-size="13" text-anchor="end">32</text>
<path d="M64.0,364.0 L64.0,354.1 L64.2,344.2 L64.7,334.4 L73.0,324.5 L75.4,314.6 L80.4,304.8 L81.3,294.9 L85.9,285.0 L103.9,275.1 L104.9,265.2 L106.7,255.4 L106.7,245.5 L112.8,235.6 L113.1,225.8 L113.2,215.9 L113.8,206.0 L114.1,196.1 L121.5,186.2 L131.6,176.4 L150.3,166.5 L155.1,156.6 L169.4,146.8 L300.7,136.9 L352.0,127.0 L392.0,117.1 L442.5,107.2 L503.6,97.4 L568.8,87.5 L580.7,77.6 L643.1,67.8 L653.3,57.9 L745.0,48.0 L776.0,48.0" fill="none" stroke="#0969da" stroke-width="2.5" stroke-linejoin="round"/>
<circle cx="776.0" cy="48.0" r="4" fill="#0969da"/>
<text x="64.0" y="388" fill="#1f2328" font-size="13" text-anchor="middle">Jul 09, 2026</text><text x="301.3" y="388" fill="#1f2328" font-size="13" text-anchor="middle">Jul 23, 2026</text><text x="538.7" y="388" fill="#1f2328" font-size="13" text-anchor="middle">Aug 06, 2026</text><text x="776.0" y="388" fill="#1f2328" font-size="13" text-anchor="middle">Aug 20, 2026</text>
</svg>