<svg xmlns="http://www.w3.org/2000/svg" viewBox="0 0 800 420" font-family="Segoe UI, sans-serif">
<rect width="800" height="420" fill="#0d1117" rx="8"/>
<text x="64" y="30" fill="#e6edf3" font-size="17" font-weight="700">★ Star History — timoncool/Higgs-Ultimate</text>
<text x="776" y="30" fill="#e6edf3" font-size="14" text-anchor="end">32 stars · updated 2026-08-24</text>
<line x1="64" y1="364.0" x2="776" y2="364.0" stroke="#30363d" stroke-width="1"/><text x="54" y="368.0" fill="#e6edf3" font-size="13" text-anchor="end">0</text><line x1="64" y1="285.0" x2="776" y2="285.0" stroke="#30363d" stroke-width="1"/><text x="54" y="289.0" fill="#e6edf3" font-size="13" text-anchor="end">8</text><line x1="64" y1="206.0" x2="776" y2="206.0" stroke="#30363d" stroke-width="1"/><text x="54" y="210.0" fill="#e6edf3" font-size="13" text-anchor="end">16</text><line x1="64" y1="127.0" x2="776" y2="127.0" stroke="#30363d" stroke-width="1"/><text x="54" y="131.0" fill="#e6edf3" font-size="13" text-anchor="end">24</text><line x1="64" y1="48.0" x2="776" y2="48.0" stroke="#30363d" stroke-width="1"/><text x="54" y="52.0" fill="#e6edf3" font-size="13" text-anchor="end">32</text>
<path d="M64.0,364.0 L64.0,354.1 L64.2,344.2 L64.7,334.4 L72.2,324.5 L74.4,314.6 L79.0,304.8 L79.8,294.9 L84.0,285.0 L100.4,275.1 L101.4,265.2 L102.9,255.4 L103.0,245.5 L108.5,235.6 L108.8,225.8 L108.9,215.9 L109.4,206.0 L109.7,196.1 L116.5,186.2 L125.7,176.4 L142.7,166.5 L147.1,156.6 L160.2,146.8 L280.0,136.9 L326.8,127.0 L363.3,117.1 L409.4,107.2 L465.2,97.4 L524.6,87.5 L535.6,77.6 L592.5,67.8 L601.8,57.9 L685.5,48.0 L776.0,48.0" fill="none" stroke="#4f8ff7" stroke-width="2.5" stroke-linejoin="round"/>
<circle cx="776.0" cy="48.0" r="4" fill="#4f8ff7"/>
<text x="64.0" y="388" fill="#e6edf3" font-size="13" text-anchor="middle">Jul 09, 2026</text><text x="301.3" y="388" fill="#e6edf3" font-size="13" text-anchor="middle">Jul 24, 2026</text><text x="538.7" y="388" fill="#e6edf3" font-size="13" text-anchor="middle">Aug 08, 2026</text><text x="776.0" y="388" fill="#e6edf3" font-size="13" text-anchor="middle">Aug 24, 2026</text>
</svg>