<svg xmlns="http://www.w3.org/2000/svg" viewBox="0 0 800 420" font-family="Segoe UI, sans-serif">
<rect width="800" height="420" fill="#ffffff" rx="8"/>
<text x="64" y="30" fill="#1f2328" font-size="17" font-weight="700">★ Star History — timoncool/Higgs-Ultimate</text>
<text x="776" y="30" fill="#1f2328" font-size="14" text-anchor="end">34 stars · updated 2026-09-06</text>
<line x1="64" y1="364.0" x2="776" y2="364.0" stroke="#d1d9e0" stroke-width="1"/><text x="54" y="368.0" fill="#1f2328" font-size="13" text-anchor="end">0</text><line x1="64" y1="289.6" x2="776" y2="289.6" stroke="#d1d9e0" stroke-width="1"/><text x="54" y="293.6" fill="#1f2328" font-size="13" text-anchor="end">8</text><line x1="64" y1="206.0" x2="776" y2="206.0" stroke="#d1d9e0" stroke-width="1"/><text x="54" y="210.0" fill="#1f2328" font-size="13" text-anchor="end">17</text><line x1="64" y1="122.4" x2="776" y2="122.4" stroke="#d1d9e0" stroke-width="1"/><text x="54" y="126.4" fill="#1f2328" font-size="13" text-anchor="end">26</text><line x1="64" y1="48.0" x2="776" y2="48.0" stroke="#d1d9e0" stroke-width="1"/><text x="54" y="52.0" fill="#1f2328" font-size="13" text-anchor="end">34</text>
<path d="M64.0,364.0 L64.0,354.7 L64.2,345.4 L64.5,336.1 L70.4,326.8 L72.1,317.5 L75.6,308.2 L76.3,298.9 L79.6,289.6 L92.3,280.4 L93.0,271.1 L94.3,261.8 L94.3,252.5 L98.6,243.2 L98.8,233.9 L98.9,224.6 L99.3,215.3 L99.5,206.0 L104.8,196.7 L111.9,187.4 L125.2,178.1 L128.6,168.8 L138.7,159.5 L231.8,150.2 L268.2,140.9 L296.5,131.6 L332.3,122.4 L375.7,113.1 L421.9,103.8 L430.3,94.5 L474.6,85.2 L481.8,75.9 L546.8,66.6 L661.3,57.3 L673.8,48.0 L776.0,48.0" fill="none" stroke="#0969da" stroke-width="2.5" stroke-linejoin="round"/>
<circle cx="776.0" cy="48.0" r="4" fill="#0969da"/>
<text x="64.0" y="388" fill="#1f2328" font-size="13" text-anchor="middle">Jul 09, 2026</text><text x="301.3" y="388" fill="#1f2328" font-size="13" text-anchor="middle">Jul 29, 2026</text><text x="538.7" y="388" fill="#1f2328" font-size="13" text-anchor="middle">Aug 17, 2026</text><text x="776.0" y="388" fill="#1f2328" font-size="13" text-anchor="middle">Sep 06, 2026</text>
</svg>