<svg xmlns="http://www.w3.org/2000/svg" viewBox="0 0 800 420" font-family="Segoe UI, sans-serif">
<rect width="800" height="420" fill="#ffffff" rx="8"/>
<text x="64" y="30" fill="#1f2328" font-size="17" font-weight="700">★ Star History — timoncool/Higgs-Ultimate</text>
<text x="776" y="30" fill="#1f2328" font-size="14" text-anchor="end">37 stars · updated 2026-09-23</text>
<line x1="64" y1="364.0" x2="776" y2="364.0" stroke="#d1d9e0" stroke-width="1"/><text x="54" y="368.0" fill="#1f2328" font-size="13" text-anchor="end">0</text><line x1="64" y1="287.1" x2="776" y2="287.1" stroke="#d1d9e0" stroke-width="1"/><text x="54" y="291.1" fill="#1f2328" font-size="13" text-anchor="end">9</text><line x1="64" y1="210.3" x2="776" y2="210.3" stroke="#d1d9e0" stroke-width="1"/><text x="54" y="214.3" fill="#1f2328" font-size="13" text-anchor="end">18</text><line x1="64" y1="124.9" x2="776" y2="124.9" stroke="#d1d9e0" stroke-width="1"/><text x="54" y="128.9" fill="#1f2328" font-size="13" text-anchor="end">28</text><line x1="64" y1="48.0" x2="776" y2="48.0" stroke="#d1d9e0" stroke-width="1"/><text x="54" y="52.0" fill="#1f2328" font-size="13" text-anchor="end">37</text>
<path d="M64.0,364.0 L64.0,355.5 L64.1,346.9 L64.4,338.4 L69.0,329.8 L70.3,321.3 L73.0,312.8 L73.5,304.2 L76.1,295.7 L85.9,287.1 L86.5,278.6 L87.5,270.1 L87.5,261.5 L90.9,253.0 L91.0,244.4 L91.1,235.9 L91.4,227.4 L91.6,218.8 L95.6,210.3 L101.2,201.7 L111.5,193.2 L114.1,184.6 L122.0,176.1 L194.2,167.6 L222.4,159.0 L244.4,150.5 L272.2,141.9 L305.8,133.4 L341.7,124.9 L348.3,116.3 L382.6,107.8 L388.2,99.2 L438.7,90.7 L527.5,82.2 L537.2,73.6 L716.9,65.1 L732.7,56.5 L771.6,48.0 L776.0,48.0" fill="none" stroke="#0969da" stroke-width="2.5" stroke-linejoin="round"/>
<circle cx="776.0" cy="48.0" r="4" fill="#0969da"/>
<text x="64.0" y="388" fill="#1f2328" font-size="13" text-anchor="middle">Jul 09, 2026</text><text x="301.3" y="388" fill="#1f2328" font-size="13" text-anchor="middle">Aug 03, 2026</text><text x="538.7" y="388" fill="#1f2328" font-size="13" text-anchor="middle">Aug 29, 2026</text><text x="776.0" y="388" fill="#1f2328" font-size="13" text-anchor="middle">Sep 23, 2026</text>
</svg>