<svg xmlns="http://www.w3.org/2000/svg" viewBox="0 0 800 420" font-family="Segoe UI, sans-serif">
<rect width="800" height="420" fill="#0d1117" rx="8"/>
<text x="64" y="30" fill="#e6edf3" font-size="17" font-weight="700">★ Star History — timoncool/Higgs-Ultimate</text>
<text x="776" y="30" fill="#e6edf3" font-size="14" text-anchor="end">34 stars · updated 2026-09-12</text>
<line x1="64" y1="364.0" x2="776" y2="364.0" stroke="#30363d" stroke-width="1"/><text x="54" y="368.0" fill="#e6edf3" font-size="13" text-anchor="end">0</text><line x1="64" y1="289.6" x2="776" y2="289.6" stroke="#30363d" stroke-width="1"/><text x="54" y="293.6" fill="#e6edf3" font-size="13" text-anchor="end">8</text><line x1="64" y1="206.0" x2="776" y2="206.0" stroke="#30363d" stroke-width="1"/><text x="54" y="210.0" fill="#e6edf3" font-size="13" text-anchor="end">17</text><line x1="64" y1="122.4" x2="776" y2="122.4" stroke="#30363d" stroke-width="1"/><text x="54" y="126.4" fill="#e6edf3" font-size="13" text-anchor="end">26</text><line x1="64" y1="48.0" x2="776" y2="48.0" stroke="#30363d" stroke-width="1"/><text x="54" y="52.0" fill="#e6edf3" font-size="13" text-anchor="end">34</text>
<path d="M64.0,364.0 L64.0,354.7 L64.2,345.4 L64.5,336.1 L69.8,326.8 L71.3,317.5 L74.5,308.2 L75.1,298.9 L78.1,289.6 L89.7,280.4 L90.3,271.1 L91.5,261.8 L91.5,252.5 L95.4,243.2 L95.6,233.9 L95.7,224.6 L96.0,215.3 L96.2,206.0 L101.0,196.7 L107.5,187.4 L119.5,178.1 L122.6,168.8 L131.8,159.5 L216.3,150.2 L249.3,140.9 L275.0,131.6 L307.5,122.4 L346.9,113.1 L388.8,103.8 L396.5,94.5 L436.7,85.2 L443.2,75.9 L502.2,66.6 L606.1,57.3 L617.5,48.0 L776.0,48.0" fill="none" stroke="#4f8ff7" stroke-width="2.5" stroke-linejoin="round"/>
<circle cx="776.0" cy="48.0" r="4" fill="#4f8ff7"/>
<text x="64.0" y="388" fill="#e6edf3" font-size="13" text-anchor="middle">Jul 09, 2026</text><text x="301.3" y="388" fill="#e6edf3" font-size="13" text-anchor="middle">Jul 31, 2026</text><text x="538.7" y="388" fill="#e6edf3" font-size="13" text-anchor="middle">Aug 21, 2026</text><text x="776.0" y="388" fill="#e6edf3" font-size="13" text-anchor="middle">Sep 12, 2026</text>
</svg>