<svg xmlns="http://www.w3.org/2000/svg" viewBox="0 0 800 420" font-family="Segoe UI, sans-serif">
<rect width="800" height="420" fill="#0d1117" rx="8"/>
<text x="64" y="30" fill="#e6edf3" font-size="17" font-weight="700">★ Star History — timoncool/Higgs-Ultimate</text>
<text x="776" y="30" fill="#e6edf3" font-size="14" text-anchor="end">26 stars · updated 2026-08-03</text>
<line x1="64" y1="364.0" x2="776" y2="364.0" stroke="#30363d" stroke-width="1"/><text x="54" y="368.0" fill="#e6edf3" font-size="13" text-anchor="end">0</text><line x1="64" y1="291.1" x2="776" y2="291.1" stroke="#30363d" stroke-width="1"/><text x="54" y="295.1" fill="#e6edf3" font-size="13" text-anchor="end">6</text><line x1="64" y1="206.0" x2="776" y2="206.0" stroke="#30363d" stroke-width="1"/><text x="54" y="210.0" fill="#e6edf3" font-size="13" text-anchor="end">13</text><line x1="64" y1="120.9" x2="776" y2="120.9" stroke="#30363d" stroke-width="1"/><text x="54" y="124.9" fill="#e6edf3" font-size="13" text-anchor="end">20</text><line x1="64" y1="48.0" x2="776" y2="48.0" stroke="#30363d" stroke-width="1"/><text x="54" y="52.0" fill="#e6edf3" font-size="13" text-anchor="end">26</text>
<path d="M64.0,364.0 L64.0,351.8 L64.4,339.7 L65.3,327.5 L79.1,315.4 L83.1,303.2 L91.5,291.1 L93.0,278.9 L100.8,266.8 L130.9,254.6 L132.7,242.5 L135.6,230.3 L135.7,218.2 L145.9,206.0 L146.4,193.8 L146.6,181.7 L147.5,169.5 L148.0,157.4 L160.5,145.2 L177.4,133.1 L208.7,120.9 L216.8,108.8 L240.8,96.6 L461.1,84.5 L547.2,72.3 L614.3,60.2 L699.0,48.0 L776.0,48.0" fill="none" stroke="#4f8ff7" stroke-width="2.5" stroke-linejoin="round"/>
<circle cx="776.0" cy="48.0" r="4" fill="#4f8ff7"/>
<text x="64.0" y="388" fill="#e6edf3" font-size="13" text-anchor="middle">Jul 09, 2026</text><text x="301.3" y="388" fill="#e6edf3" font-size="13" text-anchor="middle">Jul 17, 2026</text><text x="538.7" y="388" fill="#e6edf3" font-size="13" text-anchor="middle">Jul 25, 2026</text><text x="776.0" y="388" fill="#e6edf3" font-size="13" text-anchor="middle">Aug 03, 2026</text>
</svg>